<?xml version="1.0" encoding="utf-8"?>
<!-- Generator: Adobe Illustrator 26.0.1, SVG Export Plug-In . SVG Version: 6.00 Build 0)  -->
<svg version="1.1" id="Layer_1" xmlns="http://www.w3.org/2000/svg" xmlns:xlink="http://www.w3.org/1999/xlink" x="0px" y="0px"
	 viewBox="0 0 100 100" style="enable-background:new 0 0 100 100;" xml:space="preserve">
<style type="text/css">
	.st0{fill:#007C8A;}
	.st1{fill:#69AFBC;}
	.st2{fill:#FFFFFF;}
</style>
<g>
	<circle class="st0" cx="50" cy="50" r="50"/>
</g>
<g>
	<circle class="st1" cx="50" cy="50" r="39.3"/>
</g>
<g>
	<path class="st2" d="M53.7,62.5c1.8-4.4,3.4-8.2,4.6-11.4c0.2-0.5,0.3-0.8,0.5-1c0.1-0.1,0.3-0.2,0.6-0.2c0.2,0,0.4,0.1,0.6,0.2
		c0.2,0.1,0.2,0.3,0.2,0.4s-0.4,1.2-1.3,3.3l-1,2.2l-8.5,19.3l-4.2-7.9l-3.3-5.9l-2.6,4.8l-4,7.5l-0.8,1.6L31,67.1l-2.9-7.1
		c-1.4-3.6-2.8-6.7-4.2-9.6l-0.1-0.2h10.7L36,54c1.5,3.8,2.7,6.6,3.6,8.5l3.2-5.8l1.2-2.2l0.8-1.5l1.3-2.5c0.2-0.4,0.4-0.8,0.6-1.1
		l2.5,4.9C50.6,57.2,52.1,59.9,53.7,62.5z"/>
</g>
<g>
	<path class="st2" d="M63.2,36.7l0.4,0.6c2.3,3.7,3.9,6.2,4.8,7.5c0.9,1.3,2.2,3.2,4,5.7H60.1l-5.9-9.7c-1.8,2.2-4,5-6.4,8.4
		c-0.4,0.6-0.8,1.1-1,1.3c-0.2,0.2-0.4,0.3-0.7,0.3c-0.4,0-0.6-0.2-0.6-0.6c0-0.2,0.1-0.3,0.1-0.4c0.1-0.1,0.4-0.6,0.9-1.2l0.6-0.7
		l6.4-8.1L45.3,27h12l5.2,8.6c1.2-1.5,3-3.8,5.2-6.9c0.7-0.9,1.1-1.5,1.3-1.7s0.4-0.3,0.6-0.3c0.2,0,0.3,0.1,0.5,0.2
		s0.2,0.3,0.2,0.4c0,0.2-0.1,0.4-0.3,0.7c-0.2,0.3-0.8,1.1-2,2.5L63.2,36.7z"/>
</g>
</svg>
